<svg xmlns="http://www.w3.org/2000/svg" width="1440" height="1100" viewBox="0 0 1440 1100"><rect width="1440" height="1100" fill="#f6f1e8"/><rect y="0" width="1440" height="82" fill="#f6f1e8"/><rect x="56" y="20" width="42" height="42" fill="#245fff"/><text x="77" y="47" text-anchor="middle" font-family="Arial,sans-serif" font-size="16" font-weight="700" fill="#fffdf8">MCP</text><text x="114" y="47" font-family="Arial,sans-serif" font-size="20" font-weight="800" fill="#20252b">Millenium Custom Painters</text><rect x="1164" y="18" width="220" height="46" fill="#e6f36a" stroke="#20252b" stroke-width="2"/><text x="1274" y="47" text-anchor="middle" font-family="Arial,sans-serif" font-size="15" font-weight="800" fill="#20252b">Call (416) 543-9918</text><rect y="82" width="1440" height="658" fill="#20252b"/><rect y="722" width="445" height="18" fill="#245fff"/><rect x="445" y="722" width="331" height="18" fill="#e4572e"/><rect x="776" y="722" width="346" height="18" fill="#b7d7c2"/><rect x="1122" y="722" width="318" height="18" fill="#e6f36a"/><circle cx="1110" cy="356" r="360" fill="#384049" opacity=".45"/><rect x="878" y="168" width="370" height="392" fill="#fffdf8" stroke="#20252b" stroke-width="3"/><text x="904" y="210" font-family="Arial,sans-serif" font-size="13" font-weight="800" fill="#245fff">PUBLIC LISTING</text><text x="904" y="254" font-family="Arial,sans-serif" font-size="39" font-weight="900" fill="#20252b">5.0 rating signal</text><text x="904" y="296" font-family="Arial,sans-serif" font-size="18" fill="#66706f">Quality work, fair pricing, and</text><text x="904" y="320" font-family="Arial,sans-serif" font-size="18" fill="#66706f">dependable local service.</text><text x="904" y="382" font-family="Arial,sans-serif" font-size="13" font-weight="800" fill="#245fff">FINISH TYPES</text><text x="904" y="426" font-family="Arial,sans-serif" font-size="39" font-weight="900" fill="#20252b">Homes, rentals, offices</text><rect x="904" y="470" width="70" height="54" fill="#245fff"/><rect x="974" y="470" width="70" height="54" fill="#e4572e"/><rect x="1044" y="470" width="70" height="54" fill="#b7d7c2"/><rect x="1114" y="470" width="70" height="54" fill="#e6f36a"/><text x="98" y="190" font-family="Arial,sans-serif" font-size="14" font-weight="900" fill="#e6f36a">MISSISSAUGA CUSTOM PAINTING</text><text x="98" y="300" font-family="Arial,sans-serif" font-size="94" font-weight="900" fill="#fffdf8">Clean lines, durable</text><text x="98" y="400" font-family="Arial,sans-serif" font-size="94" font-weight="900" fill="#fffdf8">finishes, and rooms</text><text x="98" y="500" font-family="Arial,sans-serif" font-size="94" font-weight="900" fill="#fffdf8">that feel complete.</text><text x="102" y="566" font-family="Arial,sans-serif" font-size="22" fill="#d9ddd5">Interior painting, exterior painting, and renovation finishing</text><text x="102" y="598" font-family="Arial,sans-serif" font-size="22" fill="#d9ddd5">with careful prep and tidy job sites.</text><rect x="98" y="638" width="170" height="54" fill="#245fff"/><text x="183" y="672" text-anchor="middle" font-family="Arial,sans-serif" font-size="16" font-weight="800" fill="#fffdf8">Call for a quote</text><rect x="286" y="638" width="164" height="54" fill="none" stroke="#fffdf8" stroke-width="2"/><text x="368" y="672" text-anchor="middle" font-family="Arial,sans-serif" font-size="16" font-weight="800" fill="#fffdf8">Email the team</text><rect y="740" width="1440" height="116" fill="#fffdf8"/><text x="72" y="786" font-family="Arial,sans-serif" font-size="12" font-weight="800" fill="#66706f">PHONE</text><text x="72" y="818" font-family="Arial,sans-serif" font-size="20" font-weight="900" fill="#20252b">(416) 543-9918</text><text x="398" y="786" font-family="Arial,sans-serif" font-size="12" font-weight="800" fill="#66706f">EMAIL</text><text x="398" y="818" font-family="Arial,sans-serif" font-size="20" font-weight="900" fill="#20252b">adilbeckles30@hotmail.com</text><text x="780" y="786" font-family="Arial,sans-serif" font-size="12" font-weight="800" fill="#66706f">BASED NEAR</text><text x="780" y="818" font-family="Arial,sans-serif" font-size="20" font-weight="900" fill="#20252b">297 Blackthorn Ave, Mississauga</text><text x="1144" y="786" font-family="Arial,sans-serif" font-size="12" font-weight="800" fill="#66706f">HOURS</text><text x="1144" y="818" font-family="Arial,sans-serif" font-size="20" font-weight="900" fill="#20252b">Mon-Fri 9 AM-5 PM</text><text x="72" y="942" font-family="Arial,sans-serif" font-size="13" font-weight="900" fill="#245fff">SERVICES</text><text x="72" y="1018" font-family="Arial,sans-serif" font-size="62" font-weight="900" fill="#20252b">Painting and finishing for spaces that need a reliable hand.</text></svg>
